<svg xmlns="http://www.w3.org/2000/svg" width="848" height="320" viewBox="0 0 848 320" role="img"><rect width="848" height="320" fill="#0c1014"/>
    <rect x="8" y="8" width="832" height="304" fill="#141b21" stroke="#24303a"/><path d="M16 16 H34 M16 16 V34 M832 16 H814 M832 16 V34" stroke="#5ce1e6" fill="none" stroke-width="1.6"/>
    <text x="28" y="36" fill="#5ce1e6" font-size="11" letter-spacing="2.4" font-family="ui-monospace, Consolas, monospace">ORBITAL FIELD</text>
    <text x="220" y="36" fill="#8a97a3" font-size="11" letter-spacing="1.6" font-family="ui-monospace, Consolas, monospace">LAST 12 MONTHS</text>
    <circle cx="424" cy="178" r="16" fill="#5ce1e6" opacity="0.18"/>
    <circle cx="424" cy="178" r="4" fill="#5ce1e6" opacity="0.7"/>
    <g><animateTransform attributeName="transform" type="rotate" from="0 424 178" to="360 424 178" dur="90s" repeatCount="indefinite"/><ellipse cx="424" cy="178" rx="90" ry="48" fill="none" stroke="#24303a" stroke-width="1.1"/><circle cx="462.2" cy="134.5" r="5.5" fill="#e8a23a" opacity="0.9"/><circle cx="464.9" cy="135.3" r="5.5" fill="#e8a23a" opacity="0.9"/><circle cx="469.0" cy="136.4" r="5.5" fill="#e8a23a" opacity="0.9"/><circle cx="489.5" cy="145.1" r="5.5" fill="#e8a23a" opacity="0.9"/><circle cx="490.6" cy="145.7" r="5.5" fill="#e8a23a" opacity="0.9"/><circle cx="491.6" cy="146.3" r="5.5" fill="#e8a23a" opacity="0.9"/><circle cx="501.6" cy="153.6" r="5.5" fill="#e8a23a" opacity="0.9"/><circle cx="502.3" cy="154.4" r="5.5" fill="#e8a23a" opacity="0.9"/><circle cx="503.1" cy="155.1" r="5.5" fill="#e8a23a" opacity="0.9"/><circle cx="505.8" cy="158.0" r="5.5" fill="#e8a23a" opacity="0.9"/><circle cx="509.7" cy="163.4" r="5.5" fill="#e8a23a" opacity="0.9"/><circle cx="510.2" cy="164.2" r="5.5" fill="#e8a23a" opacity="0.9"/><circle cx="513.2" cy="171.4" r="5.5" fill="#e8a23a" opacity="0.9"/><circle cx="513.4" cy="172.2" r="5.5" fill="#e8a23a" opacity="0.9"/></g><g><animateTransform attributeName="transform" type="rotate" from="0 424 178" to="-360 424 178" dur="140s" repeatCount="indefinite"/><ellipse cx="424" cy="178" rx="180" ry="96" fill="none" stroke="#24303a" stroke-width="1.1"/><circle cx="290.9" cy="242.6" r="5.5" fill="#e8a23a" opacity="0.9"/><circle cx="288.8" cy="241.4" r="5.5" fill="#e8a23a" opacity="0.9"/><circle cx="244.0" cy="179.6" r="5.5" fill="#e8a23a" opacity="0.9"/><circle cx="244.1" cy="174.7" r="5.5" fill="#e8a23a" opacity="0.9"/><circle cx="244.2" cy="173.1" r="5.5" fill="#e8a23a" opacity="0.9"/><circle cx="244.4" cy="171.4" r="5.5" fill="#e8a23a" opacity="0.9"/><circle cx="260.3" cy="138.1" r="5.5" fill="#e8a23a" opacity="0.9"/><circle cx="459.3" cy="83.9" r="5.5" fill="#e8a23a" opacity="0.9"/><circle cx="508.6" cy="93.3" r="5.5" fill="#e8a23a" opacity="0.9"/><circle cx="516.7" cy="95.7" r="5.5" fill="#e8a23a" opacity="0.9"/><circle cx="519.3" cy="96.6" r="5.5" fill="#e8a23a" opacity="0.9"/><circle cx="521.9" cy="97.4" r="5.5" fill="#e8a23a" opacity="0.9"/><circle cx="527.0" cy="99.3" r="5.5" fill="#e8a23a" opacity="0.9"/><circle cx="529.6" cy="100.2" r="5.5" fill="#e8a23a" opacity="0.9"/><circle cx="534.5" cy="102.2" r="5.5" fill="#e8a23a" opacity="0.9"/><circle cx="536.9" cy="103.2" r="5.5" fill="#e8a23a" opacity="0.9"/><circle cx="548.5" cy="108.7" r="5.5" fill="#e8a23a" opacity="0.9"/><circle cx="552.9" cy="111.0" r="5.5" fill="#e8a23a" opacity="0.9"/><circle cx="563.2" cy="117.1" r="5.5" fill="#e8a23a" opacity="0.9"/><circle cx="567.0" cy="119.7" r="5.5" fill="#e8a23a" opacity="0.9"/><circle cx="568.9" cy="121.0" r="5.5" fill="#e8a23a" opacity="0.9"/><circle cx="572.5" cy="123.7" r="5.5" fill="#e8a23a" opacity="0.9"/><circle cx="574.2" cy="125.1" r="5.5" fill="#e8a23a" opacity="0.9"/><circle cx="575.9" cy="126.5" r="5.5" fill="#e8a23a" opacity="0.9"/><circle cx="577.5" cy="127.9" r="5.5" fill="#e8a23a" opacity="0.9"/><circle cx="588.9" cy="139.6" r="5.5" fill="#e8a23a" opacity="0.9"/><circle cx="598.8" cy="155.1" r="5.5" fill="#e8a23a" opacity="0.9"/><circle cx="599.5" cy="156.8" r="5.5" fill="#e8a23a" opacity="0.9"/><circle cx="600.2" cy="158.4" r="5.5" fill="#e8a23a" opacity="0.9"/><circle cx="603.3" cy="169.8" r="5.5" fill="#e8a23a" opacity="0.9"/><circle cx="603.6" cy="171.4" r="5.5" fill="#e8a23a" opacity="0.9"/></g><g><animateTransform attributeName="transform" type="rotate" from="0 424 178" to="360 424 178" dur="200s" repeatCount="indefinite"/><ellipse cx="424" cy="178" rx="270" ry="128" fill="none" stroke="#24303a" stroke-width="1.1"/><circle cx="623.7" cy="264.1" r="1.9" fill="#5ce1e6" opacity="0.9"/><circle cx="218.2" cy="260.8" r="2.5" fill="#5ce1e6" opacity="0.9"/><circle cx="215.2" cy="259.1" r="1.9" fill="#5ce1e6" opacity="0.9"/><circle cx="212.3" cy="257.4" r="3.2" fill="#5ce1e6" opacity="0.9"/><circle cx="193.7" cy="244.8" r="4.7" fill="#e8a23a" opacity="0.9"/><circle cx="154.0" cy="178.0" r="2.5" fill="#5ce1e6" opacity="0.9"/><circle cx="155.0" cy="167.0" r="2.9" fill="#5ce1e6" opacity="0.9"/><circle cx="155.9" cy="162.7" r="2.2" fill="#5ce1e6" opacity="0.9"/><circle cx="156.5" cy="160.5" r="2.5" fill="#5ce1e6" opacity="0.9"/><circle cx="157.2" cy="158.3" r="3.9" fill="#e8a23a" opacity="0.9"/><circle cx="159.7" cy="151.8" r="2.9" fill="#5ce1e6" opacity="0.9"/><circle cx="160.7" cy="149.7" r="5.5" fill="#e8a23a" opacity="0.9"/><circle cx="162.9" cy="145.4" r="1.9" fill="#5ce1e6" opacity="0.9"/><circle cx="165.4" cy="141.2" r="3.6" fill="#e8a23a" opacity="0.9"/><circle cx="186.8" cy="116.9" r="5.0" fill="#e8a23a" opacity="0.9"/><circle cx="196.2" cy="109.3" r="1.9" fill="#5ce1e6" opacity="0.9"/><circle cx="209.4" cy="100.3" r="2.9" fill="#5ce1e6" opacity="0.9"/><circle cx="227.4" cy="90.2" r="1.9" fill="#5ce1e6" opacity="0.9"/><circle cx="230.6" cy="88.7" r="3.2" fill="#5ce1e6" opacity="0.9"/><circle cx="233.9" cy="87.1" r="3.2" fill="#5ce1e6" opacity="0.9"/><circle cx="301.2" cy="64.0" r="2.2" fill="#5ce1e6" opacity="0.9"/><circle cx="313.8" cy="61.2" r="1.9" fill="#5ce1e6" opacity="0.9"/><circle cx="326.6" cy="58.6" r="1.9" fill="#5ce1e6" opacity="0.9"/><circle cx="348.5" cy="55.1" r="4.3" fill="#e8a23a" opacity="0.9"/><circle cx="426.3" cy="50.0" r="3.2" fill="#5ce1e6" opacity="0.9"/><circle cx="463.3" cy="51.4" r="3.2" fill="#5ce1e6" opacity="0.9"/><circle cx="490.5" cy="53.9" r="4.7" fill="#e8a23a" opacity="0.9"/><circle cx="495.0" cy="54.5" r="1.9" fill="#5ce1e6" opacity="0.9"/><circle cx="499.5" cy="55.1" r="2.2" fill="#5ce1e6" opacity="0.9"/><circle cx="503.9" cy="55.7" r="2.2" fill="#5ce1e6" opacity="0.9"/><circle cx="542.6" cy="63.0" r="3.9" fill="#e8a23a" opacity="0.9"/><circle cx="555.0" cy="66.1" r="3.9" fill="#e8a23a" opacity="0.9"/><circle cx="574.7" cy="71.8" r="4.7" fill="#e8a23a" opacity="0.9"/><circle cx="586.1" cy="75.6" r="4.7" fill="#e8a23a" opacity="0.9"/><circle cx="614.1" cy="87.1" r="4.3" fill="#e8a23a" opacity="0.9"/><circle cx="629.8" cy="95.2" r="5.5" fill="#e8a23a" opacity="0.9"/><circle cx="635.7" cy="98.6" r="5.0" fill="#e8a23a" opacity="0.9"/><circle cx="644.1" cy="103.8" r="4.7" fill="#e8a23a" opacity="0.9"/><circle cx="673.2" cy="128.8" r="4.7" fill="#e8a23a" opacity="0.9"/><circle cx="675.0" cy="130.8" r="4.3" fill="#e8a23a" opacity="0.9"/><circle cx="676.6" cy="132.8" r="3.2" fill="#5ce1e6" opacity="0.9"/><circle cx="679.8" cy="137.0" r="3.9" fill="#e8a23a" opacity="0.9"/><circle cx="683.9" cy="143.3" r="5.5" fill="#e8a23a" opacity="0.9"/><circle cx="685.1" cy="145.4" r="5.5" fill="#e8a23a" opacity="0.9"/><circle cx="689.2" cy="154.0" r="2.5" fill="#5ce1e6" opacity="0.9"/><circle cx="690.0" cy="156.1" r="5.5" fill="#e8a23a" opacity="0.9"/><circle cx="690.8" cy="158.3" r="5.0" fill="#e8a23a" opacity="0.9"/><circle cx="692.6" cy="164.8" r="3.6" fill="#e8a23a" opacity="0.9"/><circle cx="693.6" cy="171.4" r="1.9" fill="#5ce1e6" opacity="0.9"/><circle cx="694.0" cy="178.0" r="1.5" fill="#8a97a3" opacity="0.35"/><circle cx="692.6" cy="191.2" r="1.5" fill="#8a97a3" opacity="0.35"/><circle cx="688.3" cy="204.2" r="1.5" fill="#8a97a3" opacity="0.35"/><circle cx="681.2" cy="216.9" r="1.5" fill="#8a97a3" opacity="0.35"/><circle cx="671.4" cy="229.3" r="1.5" fill="#8a97a3" opacity="0.35"/><circle cx="659.0" cy="241.0" r="1.5" fill="#8a97a3" opacity="0.35"/><circle cx="644.1" cy="252.2" r="1.5" fill="#8a97a3" opacity="0.35"/><circle cx="626.8" cy="262.5" r="1.5" fill="#8a97a3" opacity="0.35"/><circle cx="604.0" cy="273.4" r="1.5" fill="#8a97a3" opacity="0.35"/><circle cx="582.3" cy="281.7" r="1.5" fill="#8a97a3" opacity="0.35"/><circle cx="559.0" cy="288.9" r="1.5" fill="#8a97a3" opacity="0.35"/><circle cx="534.2" cy="294.8" r="1.5" fill="#8a97a3" opacity="0.35"/><circle cx="508.3" cy="299.6" r="1.5" fill="#8a97a3" opacity="0.35"/><circle cx="481.5" cy="303.1" r="1.5" fill="#8a97a3" opacity="0.35"/><circle cx="454.1" cy="305.2" r="1.5" fill="#8a97a3" opacity="0.35"/><circle cx="426.3" cy="306.0" r="1.5" fill="#8a97a3" opacity="0.35"/><circle cx="398.5" cy="305.4" r="1.5" fill="#8a97a3" opacity="0.35"/><circle cx="371.0" cy="303.5" r="1.5" fill="#8a97a3" opacity="0.35"/><circle cx="344.1" cy="300.3" r="1.5" fill="#8a97a3" opacity="0.35"/><circle cx="318.0" cy="295.7" r="1.5" fill="#8a97a3" opacity="0.35"/><circle cx="293.0" cy="289.9" r="1.5" fill="#8a97a3" opacity="0.35"/><circle cx="269.5" cy="283.0" r="1.5" fill="#8a97a3" opacity="0.35"/><circle cx="247.5" cy="274.9" r="1.5" fill="#8a97a3" opacity="0.35"/><circle cx="227.4" cy="265.8" r="1.5" fill="#8a97a3" opacity="0.35"/><circle cx="196.2" cy="246.7" r="1.5" fill="#8a97a3" opacity="0.35"/><circle cx="180.5" cy="233.3" r="1.5" fill="#8a97a3" opacity="0.35"/><circle cx="169.8" cy="221.1" r="1.5" fill="#8a97a3" opacity="0.35"/><circle cx="161.8" cy="208.5" r="1.5" fill="#8a97a3" opacity="0.35"/><circle cx="156.5" cy="195.5" r="1.5" fill="#8a97a3" opacity="0.35"/><circle cx="154.2" cy="182.4" r="1.5" fill="#8a97a3" opacity="0.35"/><circle cx="164.1" cy="143.3" r="1.5" fill="#8a97a3" opacity="0.35"/><circle cx="174.8" cy="128.8" r="1.5" fill="#8a97a3" opacity="0.35"/><circle cx="191.3" cy="113.1" r="1.5" fill="#8a97a3" opacity="0.35"/><circle cx="212.3" cy="98.6" r="1.5" fill="#8a97a3" opacity="0.35"/><circle cx="240.6" cy="84.1" r="1.5" fill="#8a97a3" opacity="0.35"/><circle cx="261.9" cy="75.6" r="1.5" fill="#8a97a3" opacity="0.35"/><circle cx="285.0" cy="68.3" r="1.5" fill="#8a97a3" opacity="0.35"/><circle cx="318.0" cy="60.3" r="1.5" fill="#8a97a3" opacity="0.35"/><circle cx="353.0" cy="54.5" r="1.5" fill="#8a97a3" opacity="0.35"/><circle cx="380.2" cy="51.7" r="1.5" fill="#8a97a3" opacity="0.35"/><g transform="translate(627.9 137.1)"><g><animateTransform attributeName="transform" type="rotate" from="0 0 0" to="-360 0 0" dur="200s" repeatCount="indefinite"/><text x="0" y="0" fill="#8a97a3" font-size="10" text-anchor="middle" font-family="ui-monospace, Consolas, monospace">PyFoldable</text></g></g><g transform="translate(600.6 241.3)"><g><animateTransform attributeName="transform" type="rotate" from="0 0 0" to="-360 0 0" dur="200s" repeatCount="indefinite"/><text x="0" y="0" fill="#8a97a3" font-size="10" text-anchor="middle" font-family="ui-monospace, Consolas, monospace">sail</text></g></g><g transform="translate(396.7 282.2)"><g><animateTransform attributeName="transform" type="rotate" from="0 0 0" to="-360 0 0" dur="200s" repeatCount="indefinite"/><text x="0" y="0" fill="#8a97a3" font-size="10" text-anchor="middle" font-family="ui-monospace, Consolas, monospace">ag-ui</text></g></g><g transform="translate(220.1 218.9)"><g><animateTransform attributeName="transform" type="rotate" from="0 0 0" to="-360 0 0" dur="200s" repeatCount="indefinite"/><text x="0" y="0" fill="#8a97a3" font-size="10" text-anchor="middle" font-family="ui-monospace, Consolas, monospace">Btraj</text></g></g><g transform="translate(247.4 114.7)"><g><animateTransform attributeName="transform" type="rotate" from="0 0 0" to="-360 0 0" dur="200s" repeatCount="indefinite"/><text x="0" y="0" fill="#8a97a3" font-size="10" text-anchor="middle" font-family="ui-monospace, Consolas, monospace">Strata</text></g></g><g transform="translate(451.3 73.8)"><g><animateTransform attributeName="transform" type="rotate" from="0 0 0" to="-360 0 0" dur="200s" repeatCount="indefinite"/><text x="0" y="0" fill="#8a97a3" font-size="10" text-anchor="middle" font-family="ui-monospace, Consolas, monospace">OpenShell</text></g></g></g>
    <g><animateTransform attributeName="transform" type="translate" from="-40 64" to="848 64" dur="8s" begin="0s" repeatCount="indefinite"/><ellipse cx="0" cy="0" rx="15" ry="2.1" fill="#e8a23a" opacity="0.72"/><circle cx="15" cy="0" r="2.3" fill="#d8e0e6"/></g><g><animateTransform attributeName="transform" type="translate" from="-40 96" to="848 96" dur="9s" begin="1s" repeatCount="indefinite"/><ellipse cx="0" cy="0" rx="15" ry="2.1" fill="#e8a23a" opacity="0.72"/><circle cx="15" cy="0" r="2.3" fill="#d8e0e6"/></g><g><animateTransform attributeName="transform" type="translate" from="-40 128" to="848 128" dur="10s" begin="2s" repeatCount="indefinite"/><ellipse cx="0" cy="0" rx="15" ry="2.1" fill="#e8a23a" opacity="0.72"/><circle cx="15" cy="0" r="2.3" fill="#d8e0e6"/></g><g><animateTransform attributeName="transform" type="translate" from="-40 160" to="848 160" dur="11s" begin="3s" repeatCount="indefinite"/><ellipse cx="0" cy="0" rx="15" ry="2.1" fill="#e8a23a" opacity="0.72"/><circle cx="15" cy="0" r="2.3" fill="#d8e0e6"/></g><g><animateTransform attributeName="transform" type="translate" from="-40 192" to="848 192" dur="12s" begin="4s" repeatCount="indefinite"/><ellipse cx="0" cy="0" rx="15" ry="2.1" fill="#e8a23a" opacity="0.72"/><circle cx="15" cy="0" r="2.3" fill="#d8e0e6"/></g>
    </svg>