<svg xmlns="http://www.w3.org/2000/svg" width="848" height="140" viewBox="0 0 848 140" role="img"><rect width="848" height="140" fill="#0c1014"/>
    <rect x="8" y="8" width="832" height="124" fill="#141b21" stroke="#24303a"/><path d="M16 16 H34 M16 16 V34 M832 16 H814 M832 16 V34" stroke="#5ce1e6" fill="none" stroke-width="1.6"/>
    <text x="24" y="36" fill="#5ce1e6" font-size="11" letter-spacing="2.4" font-family="ui-monospace, Consolas, monospace">ACTIVITY TIMELINE</text>
    <text x="220" y="36" fill="#8a97a3" font-size="11" font-family="ui-monospace, Consolas, monospace">Poyqraz · PyFoldable · AeroForge · Code4CFD · FLOWVPM.jl · FreeToken · Omega3D · fastpm · unlazy · FastSwarmSim · openGym · gods-eye-view</text>
    <rect x="24" y="100" width="16" height="8" fill="#24303a"/><text x="24" y="124" fill="#8a97a3" font-size="9" font-family="ui-monospace, Consolas, monospace">08-14</text><rect x="81" y="100" width="16" height="8" fill="#24303a"/><text x="81" y="124" fill="#8a97a3" font-size="9" font-family="ui-monospace, Consolas, monospace">08-15</text><rect x="138" y="100" width="16" height="8" fill="#24303a"/><text x="138" y="124" fill="#8a97a3" font-size="9" font-family="ui-monospace, Consolas, monospace">08-16</text><rect x="195" y="100" width="16" height="8" fill="#24303a"/><text x="195" y="124" fill="#8a97a3" font-size="9" font-family="ui-monospace, Consolas, monospace">08-17</text><rect x="252" y="100" width="16" height="8" fill="#24303a"/><text x="252" y="124" fill="#8a97a3" font-size="9" font-family="ui-monospace, Consolas, monospace">08-18</text><rect x="309" y="100" width="16" height="8" fill="#24303a"/><text x="309" y="124" fill="#8a97a3" font-size="9" font-family="ui-monospace, Consolas, monospace">08-19</text><rect x="366" y="100" width="16" height="8" fill="#24303a"/><text x="366" y="124" fill="#8a97a3" font-size="9" font-family="ui-monospace, Consolas, monospace">08-20</text><rect x="423" y="100" width="16" height="8" fill="#24303a"/><text x="423" y="124" fill="#8a97a3" font-size="9" font-family="ui-monospace, Consolas, monospace">08-21</text><rect x="480" y="86" width="16" height="22" fill="#6ee07a"/><text x="480" y="124" fill="#8a97a3" font-size="9" font-family="ui-monospace, Consolas, monospace">08-22</text><rect x="537" y="100" width="16" height="8" fill="#6ee07a"/><text x="537" y="124" fill="#8a97a3" font-size="9" font-family="ui-monospace, Consolas, monospace">08-23</text><rect x="594" y="60" width="16" height="48" fill="#6ee07a"/><text x="594" y="124" fill="#8a97a3" font-size="9" font-family="ui-monospace, Consolas, monospace">08-24</text><rect x="651" y="99" width="16" height="9" fill="#6ee07a"/><text x="651" y="124" fill="#8a97a3" font-size="9" font-family="ui-monospace, Consolas, monospace">08-25</text><rect x="708" y="100" width="16" height="8" fill="#6ee07a"/><text x="708" y="124" fill="#8a97a3" font-size="9" font-family="ui-monospace, Consolas, monospace">08-26</text><rect x="765" y="99" width="16" height="9" fill="#6ee07a"/><text x="765" y="124" fill="#8a97a3" font-size="9" font-family="ui-monospace, Consolas, monospace">08-27</text>
    </svg>