<svg xmlns="http://www.w3.org/2000/svg" width="848" height="320" viewBox="0 0 848 320" role="img"><rect width="848" height="320" fill="#0c1014"/>
    <rect x="8" y="8" width="832" height="304" fill="#141b21" stroke="#24303a"/><path d="M16 16 H34 M16 16 V34 M832 16 H814 M832 16 V34" stroke="#5ce1e6" fill="none" stroke-width="1.6"/>
    <text x="28" y="36" fill="#5ce1e6" font-size="11" letter-spacing="2.4" font-family="ui-monospace, Consolas, monospace">ORBITAL FIELD</text>
    <text x="220" y="36" fill="#8a97a3" font-size="11" letter-spacing="1.6" font-family="ui-monospace, Consolas, monospace">LAST 12 MONTHS</text>
    <circle cx="424" cy="178" r="16" fill="#5ce1e6" opacity="0.18"/>
    <circle cx="424" cy="178" r="4" fill="#5ce1e6" opacity="0.7"/>
    <g><animateTransform attributeName="transform" type="rotate" from="0 424 178" to="360 424 178" dur="90s" repeatCount="indefinite"/><ellipse cx="424" cy="178" rx="90" ry="48" fill="none" stroke="#24303a" stroke-width="1.1"/><circle cx="471.6" cy="137.3" r="5.5" fill="#e8a23a" opacity="0.9"/><circle cx="474.2" cy="138.2" r="5.5" fill="#e8a23a" opacity="0.9"/><circle cx="478.0" cy="139.6" r="5.5" fill="#e8a23a" opacity="0.9"/><circle cx="485.1" cy="142.8" r="5.5" fill="#e8a23a" opacity="0.9"/><circle cx="487.4" cy="143.9" r="5.5" fill="#e8a23a" opacity="0.9"/><circle cx="496.4" cy="149.5" r="5.5" fill="#e8a23a" opacity="0.9"/><circle cx="497.4" cy="150.2" r="5.5" fill="#e8a23a" opacity="0.9"/><circle cx="498.2" cy="150.9" r="5.5" fill="#e8a23a" opacity="0.9"/><circle cx="506.5" cy="158.8" r="5.5" fill="#e8a23a" opacity="0.9"/><circle cx="507.1" cy="159.5" r="5.5" fill="#e8a23a" opacity="0.9"/><circle cx="507.7" cy="160.3" r="5.5" fill="#e8a23a" opacity="0.9"/><circle cx="509.7" cy="163.4" r="5.5" fill="#e8a23a" opacity="0.9"/><circle cx="512.4" cy="169.0" r="5.5" fill="#e8a23a" opacity="0.9"/></g><g><animateTransform attributeName="transform" type="rotate" from="0 424 178" to="-360 424 178" dur="140s" repeatCount="indefinite"/><ellipse cx="424" cy="178" rx="180" ry="96" fill="none" stroke="#24303a" stroke-width="1.1"/><circle cx="277.3" cy="233.6" r="5.5" fill="#e8a23a" opacity="0.9"/><circle cx="275.5" cy="232.3" r="5.5" fill="#e8a23a" opacity="0.9"/><circle cx="245.0" cy="168.1" r="5.5" fill="#e8a23a" opacity="0.9"/><circle cx="246.1" cy="163.2" r="5.5" fill="#e8a23a" opacity="0.9"/><circle cx="246.6" cy="161.6" r="5.5" fill="#e8a23a" opacity="0.9"/><circle cx="247.2" cy="160.0" r="5.5" fill="#e8a23a" opacity="0.9"/><circle cx="270.5" cy="127.9" r="5.5" fill="#e8a23a" opacity="0.9"/><circle cx="480.2" cy="86.8" r="5.5" fill="#e8a23a" opacity="0.9"/><circle cx="527.0" cy="99.3" r="5.5" fill="#e8a23a" opacity="0.9"/><circle cx="534.5" cy="102.2" r="5.5" fill="#e8a23a" opacity="0.9"/><circle cx="536.9" cy="103.2" r="5.5" fill="#e8a23a" opacity="0.9"/><circle cx="539.3" cy="104.3" r="5.5" fill="#e8a23a" opacity="0.9"/><circle cx="544.0" cy="106.4" r="5.5" fill="#e8a23a" opacity="0.9"/><circle cx="552.9" cy="111.0" r="5.5" fill="#e8a23a" opacity="0.9"/><circle cx="563.2" cy="117.1" r="5.5" fill="#e8a23a" opacity="0.9"/><circle cx="567.0" cy="119.7" r="5.5" fill="#e8a23a" opacity="0.9"/><circle cx="575.9" cy="126.5" r="5.5" fill="#e8a23a" opacity="0.9"/><circle cx="579.1" cy="129.3" r="5.5" fill="#e8a23a" opacity="0.9"/><circle cx="580.7" cy="130.7" r="5.5" fill="#e8a23a" opacity="0.9"/><circle cx="583.6" cy="133.6" r="5.5" fill="#e8a23a" opacity="0.9"/><circle cx="585.0" cy="135.1" r="5.5" fill="#e8a23a" opacity="0.9"/><circle cx="586.4" cy="136.6" r="5.5" fill="#e8a23a" opacity="0.9"/><circle cx="587.7" cy="138.1" r="5.5" fill="#e8a23a" opacity="0.9"/><circle cx="601.4" cy="161.6" r="5.5" fill="#e8a23a" opacity="0.9"/><circle cx="601.9" cy="163.2" r="5.5" fill="#e8a23a" opacity="0.9"/><circle cx="602.3" cy="164.9" r="5.5" fill="#e8a23a" opacity="0.9"/><circle cx="603.0" cy="168.1" r="5.5" fill="#e8a23a" opacity="0.9"/><circle cx="603.3" cy="169.8" r="5.5" fill="#e8a23a" opacity="0.9"/></g><g><animateTransform attributeName="transform" type="rotate" from="0 424 178" to="360 424 178" dur="200s" repeatCount="indefinite"/><ellipse cx="424" cy="178" rx="270" ry="128" fill="none" stroke="#24303a" stroke-width="1.1"/><circle cx="600.5" cy="274.9" r="1.9" fill="#5ce1e6" opacity="0.9"/><circle cx="198.7" cy="248.5" r="2.5" fill="#5ce1e6" opacity="0.9"/><circle cx="196.2" cy="246.7" r="1.9" fill="#5ce1e6" opacity="0.9"/><circle cx="193.7" cy="244.8" r="3.2" fill="#5ce1e6" opacity="0.9"/><circle cx="178.5" cy="231.3" r="4.7" fill="#e8a23a" opacity="0.9"/><circle cx="155.9" cy="162.7" r="2.5" fill="#5ce1e6" opacity="0.9"/><circle cx="159.7" cy="151.8" r="2.9" fill="#5ce1e6" opacity="0.9"/><circle cx="161.8" cy="147.5" r="2.2" fill="#5ce1e6" opacity="0.9"/><circle cx="162.9" cy="145.4" r="2.5" fill="#5ce1e6" opacity="0.9"/><circle cx="164.1" cy="143.3" r="3.9" fill="#e8a23a" opacity="0.9"/><circle cx="168.2" cy="137.0" r="2.9" fill="#5ce1e6" opacity="0.9"/><circle cx="169.8" cy="134.9" r="5.5" fill="#e8a23a" opacity="0.9"/><circle cx="173.0" cy="130.8" r="1.9" fill="#5ce1e6" opacity="0.9"/><circle cx="176.6" cy="126.7" r="3.6" fill="#e8a23a" opacity="0.9"/><circle cx="203.9" cy="103.8" r="5.0" fill="#e8a23a" opacity="0.9"/><circle cx="215.2" cy="96.9" r="1.9" fill="#5ce1e6" opacity="0.9"/><circle cx="230.6" cy="88.7" r="2.9" fill="#5ce1e6" opacity="0.9"/><circle cx="251.0" cy="79.7" r="1.9" fill="#5ce1e6" opacity="0.9"/><circle cx="254.6" cy="78.3" r="3.2" fill="#5ce1e6" opacity="0.9"/><circle cx="258.3" cy="77.0" r="3.2" fill="#5ce1e6" opacity="0.9"/><circle cx="330.9" cy="57.8" r="2.2" fill="#5ce1e6" opacity="0.9"/><circle cx="344.1" cy="55.7" r="1.9" fill="#5ce1e6" opacity="0.9"/><circle cx="357.5" cy="53.9" r="1.9" fill="#5ce1e6" opacity="0.9"/><circle cx="380.2" cy="51.7" r="4.3" fill="#e8a23a" opacity="0.9"/><circle cx="458.7" cy="51.1" r="3.2" fill="#5ce1e6" opacity="0.9"/><circle cx="495.0" cy="54.5" r="3.2" fill="#5ce1e6" opacity="0.9"/><circle cx="521.4" cy="58.6" r="4.7" fill="#e8a23a" opacity="0.9"/><circle cx="525.7" cy="59.4" r="1.9" fill="#5ce1e6" opacity="0.9"/><circle cx="530.0" cy="60.3" r="2.2" fill="#5ce1e6" opacity="0.9"/><circle cx="534.2" cy="61.2" r="2.2" fill="#5ce1e6" opacity="0.9"/><circle cx="570.9" cy="70.6" r="3.9" fill="#e8a23a" opacity="0.9"/><circle cx="582.3" cy="74.3" r="3.9" fill="#e8a23a" opacity="0.9"/><circle cx="600.5" cy="81.1" r="4.7" fill="#e8a23a" opacity="0.9"/><circle cx="610.8" cy="85.6" r="4.7" fill="#e8a23a" opacity="0.9"/><circle cx="635.7" cy="98.6" r="4.3" fill="#e8a23a" opacity="0.9"/><circle cx="649.3" cy="107.5" r="5.5" fill="#e8a23a" opacity="0.9"/><circle cx="654.3" cy="111.2" r="5.0" fill="#e8a23a" opacity="0.9"/><circle cx="661.2" cy="116.9" r="4.7" fill="#e8a23a" opacity="0.9"/><circle cx="682.6" cy="141.2" r="5.5" fill="#e8a23a" opacity="0.9"/><circle cx="683.9" cy="143.3" r="3.6" fill="#e8a23a" opacity="0.9"/><circle cx="685.1" cy="145.4" r="2.9" fill="#5ce1e6" opacity="0.9"/><circle cx="686.2" cy="147.5" r="3.2" fill="#5ce1e6" opacity="0.9"/><circle cx="688.3" cy="151.8" r="3.9" fill="#e8a23a" opacity="0.9"/><circle cx="692.1" cy="162.7" r="5.5" fill="#e8a23a" opacity="0.9"/><circle cx="693.4" cy="169.2" r="2.5" fill="#5ce1e6" opacity="0.9"/><circle cx="693.6" cy="171.4" r="5.3" fill="#e8a23a" opacity="0.9"/><circle cx="693.8" cy="173.6" r="3.9" fill="#e8a23a" opacity="0.9"/><circle cx="694.0" cy="175.8" r="2.2" fill="#5ce1e6" opacity="0.9"/><circle cx="694.0" cy="178.0" r="1.5" fill="#8a97a3" opacity="0.35"/><circle cx="692.6" cy="191.2" r="1.5" fill="#8a97a3" opacity="0.35"/><circle cx="688.3" cy="204.2" r="1.5" fill="#8a97a3" opacity="0.35"/><circle cx="681.2" cy="216.9" r="1.5" fill="#8a97a3" opacity="0.35"/><circle cx="671.4" cy="229.3" r="1.5" fill="#8a97a3" opacity="0.35"/><circle cx="659.0" cy="241.0" r="1.5" fill="#8a97a3" opacity="0.35"/><circle cx="644.1" cy="252.2" r="1.5" fill="#8a97a3" opacity="0.35"/><circle cx="626.8" cy="262.5" r="1.5" fill="#8a97a3" opacity="0.35"/><circle cx="607.4" cy="271.9" r="1.5" fill="#8a97a3" opacity="0.35"/><circle cx="582.3" cy="281.7" r="1.5" fill="#8a97a3" opacity="0.35"/><circle cx="559.0" cy="288.9" r="1.5" fill="#8a97a3" opacity="0.35"/><circle cx="534.2" cy="294.8" r="1.5" fill="#8a97a3" opacity="0.35"/><circle cx="508.3" cy="299.6" r="1.5" fill="#8a97a3" opacity="0.35"/><circle cx="481.5" cy="303.1" r="1.5" fill="#8a97a3" opacity="0.35"/><circle cx="454.1" cy="305.2" r="1.5" fill="#8a97a3" opacity="0.35"/><circle cx="426.3" cy="306.0" r="1.5" fill="#8a97a3" opacity="0.35"/><circle cx="398.5" cy="305.4" r="1.5" fill="#8a97a3" opacity="0.35"/><circle cx="371.0" cy="303.5" r="1.5" fill="#8a97a3" opacity="0.35"/><circle cx="344.1" cy="300.3" r="1.5" fill="#8a97a3" opacity="0.35"/><circle cx="318.0" cy="295.7" r="1.5" fill="#8a97a3" opacity="0.35"/><circle cx="293.0" cy="289.9" r="1.5" fill="#8a97a3" opacity="0.35"/><circle cx="269.5" cy="283.0" r="1.5" fill="#8a97a3" opacity="0.35"/><circle cx="247.5" cy="274.9" r="1.5" fill="#8a97a3" opacity="0.35"/><circle cx="227.4" cy="265.8" r="1.5" fill="#8a97a3" opacity="0.35"/><circle cx="209.4" cy="255.7" r="1.5" fill="#8a97a3" opacity="0.35"/><circle cx="182.5" cy="235.2" r="1.5" fill="#8a97a3" opacity="0.35"/><circle cx="169.8" cy="221.1" r="1.5" fill="#8a97a3" opacity="0.35"/><circle cx="161.8" cy="208.5" r="1.5" fill="#8a97a3" opacity="0.35"/><circle cx="156.5" cy="195.5" r="1.5" fill="#8a97a3" opacity="0.35"/><circle cx="154.2" cy="182.4" r="1.5" fill="#8a97a3" opacity="0.35"/><circle cx="154.6" cy="169.2" r="1.5" fill="#8a97a3" opacity="0.35"/><circle cx="171.4" cy="132.8" r="1.5" fill="#8a97a3" opacity="0.35"/><circle cx="186.8" cy="116.9" r="1.5" fill="#8a97a3" opacity="0.35"/><circle cx="206.7" cy="102.1" r="1.5" fill="#8a97a3" opacity="0.35"/><circle cx="227.4" cy="90.2" r="1.5" fill="#8a97a3" opacity="0.35"/><circle cx="261.9" cy="75.6" r="1.5" fill="#8a97a3" opacity="0.35"/><circle cx="285.0" cy="68.3" r="1.5" fill="#8a97a3" opacity="0.35"/><circle cx="309.5" cy="62.1" r="1.5" fill="#8a97a3" opacity="0.35"/><circle cx="339.7" cy="56.4" r="1.5" fill="#8a97a3" opacity="0.35"/><circle cx="375.6" cy="52.1" r="1.5" fill="#8a97a3" opacity="0.35"/><g transform="translate(627.9 137.1)"><g><animateTransform attributeName="transform" type="rotate" from="0 0 0" to="-360 0 0" dur="200s" repeatCount="indefinite"/><text x="0" y="0" fill="#8a97a3" font-size="10" text-anchor="middle" font-family="ui-monospace, Consolas, monospace">PyFoldable</text></g></g><g transform="translate(569.0 257.3)"><g><animateTransform attributeName="transform" type="rotate" from="0 0 0" to="-360 0 0" dur="200s" repeatCount="indefinite"/><text x="0" y="0" fill="#8a97a3" font-size="10" text-anchor="middle" font-family="ui-monospace, Consolas, monospace">FireNET</text></g></g><g transform="translate(309.7 267.9)"><g><animateTransform attributeName="transform" type="rotate" from="0 0 0" to="-360 0 0" dur="200s" repeatCount="indefinite"/><text x="0" y="0" fill="#8a97a3" font-size="10" text-anchor="middle" font-family="ui-monospace, Consolas, monospace">laya</text></g></g><g transform="translate(208.3 154.2)"><g><animateTransform attributeName="transform" type="rotate" from="0 0 0" to="-360 0 0" dur="200s" repeatCount="indefinite"/><text x="0" y="0" fill="#8a97a3" font-size="10" text-anchor="middle" font-family="ui-monospace, Consolas, monospace">jev-ultrafast</text></g></g><g transform="translate(405.0 73.4)"><g><animateTransform attributeName="transform" type="rotate" from="0 0 0" to="-360 0 0" dur="200s" repeatCount="indefinite"/><text x="0" y="0" fill="#8a97a3" font-size="10" text-anchor="middle" font-family="ui-monospace, Consolas, monospace">linkedin-agent-ski</text></g></g></g>
    <g><animateTransform attributeName="transform" type="translate" from="-40 64" to="848 64" dur="8s" begin="0s" repeatCount="indefinite"/><ellipse cx="0" cy="0" rx="15" ry="2.1" fill="#e8a23a" opacity="0.72"/><circle cx="15" cy="0" r="2.3" fill="#d8e0e6"/></g><g><animateTransform attributeName="transform" type="translate" from="-40 96" to="848 96" dur="9s" begin="1s" repeatCount="indefinite"/><ellipse cx="0" cy="0" rx="15" ry="2.1" fill="#e8a23a" opacity="0.72"/><circle cx="15" cy="0" r="2.3" fill="#d8e0e6"/></g><g><animateTransform attributeName="transform" type="translate" from="-40 128" to="848 128" dur="10s" begin="2s" repeatCount="indefinite"/><ellipse cx="0" cy="0" rx="15" ry="2.1" fill="#e8a23a" opacity="0.72"/><circle cx="15" cy="0" r="2.3" fill="#d8e0e6"/></g><g><animateTransform attributeName="transform" type="translate" from="-40 160" to="848 160" dur="11s" begin="3s" repeatCount="indefinite"/><ellipse cx="0" cy="0" rx="15" ry="2.1" fill="#e8a23a" opacity="0.72"/><circle cx="15" cy="0" r="2.3" fill="#d8e0e6"/></g><g><animateTransform attributeName="transform" type="translate" from="-40 192" to="848 192" dur="12s" begin="4s" repeatCount="indefinite"/><ellipse cx="0" cy="0" rx="15" ry="2.1" fill="#e8a23a" opacity="0.72"/><circle cx="15" cy="0" r="2.3" fill="#d8e0e6"/></g>
    </svg>