<svg xmlns="http://www.w3.org/2000/svg" width="848" height="320" viewBox="0 0 848 320" role="img"><rect width="848" height="320" fill="#0c1014"/>
    <rect x="8" y="8" width="832" height="304" fill="#141b21" stroke="#24303a"/><path d="M16 16 H34 M16 16 V34 M832 16 H814 M832 16 V34" stroke="#5ce1e6" fill="none" stroke-width="1.6"/>
    <text x="28" y="36" fill="#5ce1e6" font-size="11" letter-spacing="2.4" font-family="ui-monospace, Consolas, monospace">ORBITAL FIELD</text>
    <text x="220" y="36" fill="#8a97a3" font-size="11" letter-spacing="1.6" font-family="ui-monospace, Consolas, monospace">LAST 12 MONTHS</text>
    <circle cx="424" cy="178" r="16" fill="#5ce1e6" opacity="0.18"/>
    <circle cx="424" cy="178" r="4" fill="#5ce1e6" opacity="0.7"/>
    <g><animateTransform attributeName="transform" type="rotate" from="0 424 178" to="360 424 178" dur="90s" repeatCount="indefinite"/><ellipse cx="424" cy="178" rx="90" ry="48" fill="none" stroke="#24303a" stroke-width="1.1"/><circle cx="480.5" cy="140.6" r="5.5" fill="#e8a23a" opacity="0.9"/><circle cx="482.8" cy="141.7" r="5.5" fill="#e8a23a" opacity="0.9"/><circle cx="486.3" cy="143.3" r="5.5" fill="#e8a23a" opacity="0.9"/><circle cx="492.6" cy="146.9" r="5.5" fill="#e8a23a" opacity="0.9"/><circle cx="502.3" cy="154.4" r="5.5" fill="#e8a23a" opacity="0.9"/><circle cx="503.1" cy="155.1" r="5.5" fill="#e8a23a" opacity="0.9"/><circle cx="503.8" cy="155.8" r="5.5" fill="#e8a23a" opacity="0.9"/><circle cx="510.2" cy="164.2" r="5.5" fill="#e8a23a" opacity="0.9"/><circle cx="510.6" cy="165.0" r="5.5" fill="#e8a23a" opacity="0.9"/><circle cx="511.0" cy="165.8" r="5.5" fill="#e8a23a" opacity="0.9"/><circle cx="512.4" cy="169.0" r="5.5" fill="#e8a23a" opacity="0.9"/><circle cx="513.8" cy="174.7" r="5.5" fill="#e8a23a" opacity="0.9"/></g><g><animateTransform attributeName="transform" type="rotate" from="0 424 178" to="-360 424 178" dur="140s" repeatCount="indefinite"/><ellipse cx="424" cy="178" rx="180" ry="96" fill="none" stroke="#24303a" stroke-width="1.1"/><circle cx="265.8" cy="223.8" r="5.5" fill="#e8a23a" opacity="0.9"/><circle cx="264.4" cy="222.4" r="5.5" fill="#e8a23a" opacity="0.9"/><circle cx="248.5" cy="156.8" r="5.5" fill="#e8a23a" opacity="0.9"/><circle cx="250.7" cy="152.0" r="5.5" fill="#e8a23a" opacity="0.9"/><circle cx="251.6" cy="150.4" r="5.5" fill="#e8a23a" opacity="0.9"/><circle cx="252.5" cy="148.8" r="5.5" fill="#e8a23a" opacity="0.9"/><circle cx="263.0" cy="135.1" r="5.5" fill="#e8a23a" opacity="0.9"/><circle cx="282.9" cy="118.4" r="5.5" fill="#e8a23a" opacity="0.9"/><circle cx="500.3" cy="91.1" r="5.5" fill="#e8a23a" opacity="0.9"/><circle cx="544.0" cy="106.4" r="5.5" fill="#e8a23a" opacity="0.9"/><circle cx="550.7" cy="109.8" r="5.5" fill="#e8a23a" opacity="0.9"/><circle cx="552.9" cy="111.0" r="5.5" fill="#e8a23a" opacity="0.9"/><circle cx="555.0" cy="112.2" r="5.5" fill="#e8a23a" opacity="0.9"/><circle cx="559.2" cy="114.6" r="5.5" fill="#e8a23a" opacity="0.9"/><circle cx="565.1" cy="118.4" r="5.5" fill="#e8a23a" opacity="0.9"/><circle cx="567.0" cy="119.7" r="5.5" fill="#e8a23a" opacity="0.9"/><circle cx="575.9" cy="126.5" r="5.5" fill="#e8a23a" opacity="0.9"/><circle cx="579.1" cy="129.3" r="5.5" fill="#e8a23a" opacity="0.9"/><circle cx="585.0" cy="135.1" r="5.5" fill="#e8a23a" opacity="0.9"/><circle cx="586.4" cy="136.6" r="5.5" fill="#e8a23a" opacity="0.9"/><circle cx="588.9" cy="139.6" r="5.5" fill="#e8a23a" opacity="0.9"/><circle cx="590.2" cy="141.1" r="5.5" fill="#e8a23a" opacity="0.9"/><circle cx="592.4" cy="144.1" r="5.5" fill="#e8a23a" opacity="0.9"/><circle cx="593.5" cy="145.7" r="5.5" fill="#e8a23a" opacity="0.9"/><circle cx="594.5" cy="147.2" r="5.5" fill="#e8a23a" opacity="0.9"/><circle cx="595.5" cy="148.8" r="5.5" fill="#e8a23a" opacity="0.9"/><circle cx="601.4" cy="161.6" r="5.5" fill="#e8a23a" opacity="0.9"/><circle cx="603.8" cy="173.1" r="5.5" fill="#e8a23a" opacity="0.9"/><circle cx="603.9" cy="174.7" r="5.5" fill="#e8a23a" opacity="0.9"/></g><g><animateTransform attributeName="transform" type="rotate" from="0 424 178" to="360 424 178" dur="200s" repeatCount="indefinite"/><ellipse cx="424" cy="178" rx="270" ry="128" fill="none" stroke="#24303a" stroke-width="1.1"/><circle cx="574.7" cy="284.2" r="1.9" fill="#5ce1e6" opacity="0.9"/><circle cx="182.5" cy="235.2" r="2.5" fill="#5ce1e6" opacity="0.9"/><circle cx="180.5" cy="233.3" r="1.9" fill="#5ce1e6" opacity="0.9"/><circle cx="178.5" cy="231.3" r="3.2" fill="#5ce1e6" opacity="0.9"/><circle cx="166.8" cy="216.9" r="4.7" fill="#e8a23a" opacity="0.9"/><circle cx="161.8" cy="147.5" r="2.5" fill="#5ce1e6" opacity="0.9"/><circle cx="168.2" cy="137.0" r="2.9" fill="#5ce1e6" opacity="0.9"/><circle cx="171.4" cy="132.8" r="2.2" fill="#5ce1e6" opacity="0.9"/><circle cx="173.0" cy="130.8" r="2.5" fill="#5ce1e6" opacity="0.9"/><circle cx="174.8" cy="128.8" r="3.9" fill="#e8a23a" opacity="0.9"/><circle cx="180.5" cy="122.7" r="2.9" fill="#5ce1e6" opacity="0.9"/><circle cx="186.8" cy="116.9" r="1.9" fill="#5ce1e6" opacity="0.9"/><circle cx="191.3" cy="113.1" r="3.6" fill="#e8a23a" opacity="0.9"/><circle cx="224.3" cy="91.9" r="5.0" fill="#e8a23a" opacity="0.9"/><circle cx="237.2" cy="85.6" r="1.9" fill="#5ce1e6" opacity="0.9"/><circle cx="254.6" cy="78.3" r="2.9" fill="#5ce1e6" opacity="0.9"/><circle cx="277.1" cy="70.6" r="1.9" fill="#5ce1e6" opacity="0.9"/><circle cx="281.1" cy="69.4" r="3.2" fill="#5ce1e6" opacity="0.9"/><circle cx="285.0" cy="68.3" r="3.2" fill="#5ce1e6" opacity="0.9"/><circle cx="362.0" cy="53.4" r="2.2" fill="#5ce1e6" opacity="0.9"/><circle cx="375.6" cy="52.1" r="1.9" fill="#5ce1e6" opacity="0.9"/><circle cx="389.3" cy="51.1" r="1.9" fill="#5ce1e6" opacity="0.9"/><circle cx="412.4" cy="50.1" r="4.3" fill="#e8a23a" opacity="0.9"/><circle cx="490.5" cy="53.9" r="3.2" fill="#5ce1e6" opacity="0.9"/><circle cx="525.7" cy="59.4" r="3.2" fill="#5ce1e6" opacity="0.9"/><circle cx="550.9" cy="65.0" r="4.7" fill="#e8a23a" opacity="0.9"/><circle cx="555.0" cy="66.1" r="1.9" fill="#5ce1e6" opacity="0.9"/><circle cx="559.0" cy="67.1" r="2.2" fill="#5ce1e6" opacity="0.9"/><circle cx="563.0" cy="68.3" r="2.2" fill="#5ce1e6" opacity="0.9"/><circle cx="597.0" cy="79.7" r="3.9" fill="#e8a23a" opacity="0.9"/><circle cx="607.4" cy="84.1" r="3.9" fill="#e8a23a" opacity="0.9"/><circle cx="623.7" cy="91.9" r="4.7" fill="#e8a23a" opacity="0.9"/><circle cx="632.8" cy="96.9" r="4.7" fill="#e8a23a" opacity="0.9"/><circle cx="654.3" cy="111.2" r="4.3" fill="#e8a23a" opacity="0.9"/><circle cx="669.5" cy="124.7" r="5.0" fill="#e8a23a" opacity="0.9"/><circle cx="675.0" cy="130.8" r="4.7" fill="#e8a23a" opacity="0.9"/><circle cx="690.8" cy="158.3" r="3.6" fill="#e8a23a" opacity="0.9"/><circle cx="691.5" cy="160.5" r="2.9" fill="#5ce1e6" opacity="0.9"/><circle cx="692.1" cy="162.7" r="3.2" fill="#5ce1e6" opacity="0.9"/><circle cx="693.0" cy="167.0" r="3.9" fill="#e8a23a" opacity="0.9"/><circle cx="694.0" cy="175.8" r="3.9" fill="#e8a23a" opacity="0.9"/><circle cx="694.0" cy="178.0" r="1.5" fill="#8a97a3" opacity="0.35"/><circle cx="692.1" cy="193.3" r="1.5" fill="#8a97a3" opacity="0.35"/><circle cx="686.2" cy="208.5" r="1.5" fill="#8a97a3" opacity="0.35"/><circle cx="676.6" cy="223.2" r="1.5" fill="#8a97a3" opacity="0.35"/><circle cx="663.4" cy="237.2" r="1.5" fill="#8a97a3" opacity="0.35"/><circle cx="646.7" cy="250.4" r="1.5" fill="#8a97a3" opacity="0.35"/><circle cx="626.8" cy="262.5" r="1.5" fill="#8a97a3" opacity="0.35"/><circle cx="604.0" cy="273.4" r="1.5" fill="#8a97a3" opacity="0.35"/><circle cx="578.5" cy="283.0" r="1.5" fill="#8a97a3" opacity="0.35"/><circle cx="546.8" cy="292.0" r="1.5" fill="#8a97a3" opacity="0.35"/><circle cx="517.1" cy="298.2" r="1.5" fill="#8a97a3" opacity="0.35"/><circle cx="486.0" cy="302.6" r="1.5" fill="#8a97a3" opacity="0.35"/><circle cx="454.1" cy="305.2" r="1.5" fill="#8a97a3" opacity="0.35"/><circle cx="421.7" cy="306.0" r="1.5" fill="#8a97a3" opacity="0.35"/><circle cx="389.3" cy="304.9" r="1.5" fill="#8a97a3" opacity="0.35"/><circle cx="357.5" cy="302.1" r="1.5" fill="#8a97a3" opacity="0.35"/><circle cx="326.6" cy="297.4" r="1.5" fill="#8a97a3" opacity="0.35"/><circle cx="297.1" cy="291.0" r="1.5" fill="#8a97a3" opacity="0.35"/><circle cx="269.5" cy="283.0" r="1.5" fill="#8a97a3" opacity="0.35"/><circle cx="244.0" cy="273.4" r="1.5" fill="#8a97a3" opacity="0.35"/><circle cx="221.2" cy="262.5" r="1.5" fill="#8a97a3" opacity="0.35"/><circle cx="201.3" cy="250.4" r="1.5" fill="#8a97a3" opacity="0.35"/><circle cx="174.8" cy="227.2" r="1.5" fill="#8a97a3" opacity="0.35"/><circle cx="162.9" cy="210.6" r="1.5" fill="#8a97a3" opacity="0.35"/><circle cx="156.5" cy="195.5" r="1.5" fill="#8a97a3" opacity="0.35"/><circle cx="154.0" cy="180.2" r="1.5" fill="#8a97a3" opacity="0.35"/><circle cx="155.4" cy="164.8" r="1.5" fill="#8a97a3" opacity="0.35"/><circle cx="162.9" cy="145.4" r="1.5" fill="#8a97a3" opacity="0.35"/><circle cx="196.2" cy="109.3" r="1.5" fill="#8a97a3" opacity="0.35"/><circle cx="218.2" cy="95.2" r="1.5" fill="#8a97a3" opacity="0.35"/><circle cx="247.5" cy="81.1" r="1.5" fill="#8a97a3" opacity="0.35"/><circle cx="289.0" cy="67.1" r="1.5" fill="#8a97a3" opacity="0.35"/><circle cx="318.0" cy="60.3" r="1.5" fill="#8a97a3" opacity="0.35"/><circle cx="348.5" cy="55.1" r="1.5" fill="#8a97a3" opacity="0.35"/><circle cx="393.9" cy="50.8" r="1.5" fill="#8a97a3" opacity="0.35"/><circle cx="431.0" cy="50.0" r="1.5" fill="#8a97a3" opacity="0.35"/><circle cx="463.3" cy="51.4" r="1.5" fill="#8a97a3" opacity="0.35"/><circle cx="499.5" cy="55.1" r="1.5" fill="#8a97a3" opacity="0.35"/><circle cx="534.2" cy="61.2" r="1.5" fill="#8a97a3" opacity="0.35"/><circle cx="582.3" cy="74.3" r="1.5" fill="#8a97a3" opacity="0.35"/><g transform="translate(627.9 137.1)"><g><animateTransform attributeName="transform" type="rotate" from="0 0 0" to="-360 0 0" dur="200s" repeatCount="indefinite"/><text x="0" y="0" fill="#8a97a3" font-size="10" text-anchor="middle" font-family="ui-monospace, Consolas, monospace">PyFoldable</text></g></g><g transform="translate(600.6 241.3)"><g><animateTransform attributeName="transform" type="rotate" from="0 0 0" to="-360 0 0" dur="200s" repeatCount="indefinite"/><text x="0" y="0" fill="#8a97a3" font-size="10" text-anchor="middle" font-family="ui-monospace, Consolas, monospace">FireNET</text></g></g><g transform="translate(396.7 282.2)"><g><animateTransform attributeName="transform" type="rotate" from="0 0 0" to="-360 0 0" dur="200s" repeatCount="indefinite"/><text x="0" y="0" fill="#8a97a3" font-size="10" text-anchor="middle" font-family="ui-monospace, Consolas, monospace">laya</text></g></g><g transform="translate(220.1 218.9)"><g><animateTransform attributeName="transform" type="rotate" from="0 0 0" to="-360 0 0" dur="200s" repeatCount="indefinite"/><text x="0" y="0" fill="#8a97a3" font-size="10" text-anchor="middle" font-family="ui-monospace, Consolas, monospace">jev-ultrafast</text></g></g><g transform="translate(247.4 114.7)"><g><animateTransform attributeName="transform" type="rotate" from="0 0 0" to="-360 0 0" dur="200s" repeatCount="indefinite"/><text x="0" y="0" fill="#8a97a3" font-size="10" text-anchor="middle" font-family="ui-monospace, Consolas, monospace">linkedin-agent-ski</text></g></g><g transform="translate(451.3 73.8)"><g><animateTransform attributeName="transform" type="rotate" from="0 0 0" to="-360 0 0" dur="200s" repeatCount="indefinite"/><text x="0" y="0" fill="#8a97a3" font-size="10" text-anchor="middle" font-family="ui-monospace, Consolas, monospace">geogebra</text></g></g></g>
    <g><animateTransform attributeName="transform" type="translate" from="-40 64" to="848 64" dur="8s" begin="0s" repeatCount="indefinite"/><ellipse cx="0" cy="0" rx="15" ry="2.1" fill="#e8a23a" opacity="0.72"/><circle cx="15" cy="0" r="2.3" fill="#d8e0e6"/></g><g><animateTransform attributeName="transform" type="translate" from="-40 96" to="848 96" dur="9s" begin="1s" repeatCount="indefinite"/><ellipse cx="0" cy="0" rx="15" ry="2.1" fill="#e8a23a" opacity="0.72"/><circle cx="15" cy="0" r="2.3" fill="#d8e0e6"/></g><g><animateTransform attributeName="transform" type="translate" from="-40 128" to="848 128" dur="10s" begin="2s" repeatCount="indefinite"/><ellipse cx="0" cy="0" rx="15" ry="2.1" fill="#e8a23a" opacity="0.72"/><circle cx="15" cy="0" r="2.3" fill="#d8e0e6"/></g><g><animateTransform attributeName="transform" type="translate" from="-40 160" to="848 160" dur="11s" begin="3s" repeatCount="indefinite"/><ellipse cx="0" cy="0" rx="15" ry="2.1" fill="#e8a23a" opacity="0.72"/><circle cx="15" cy="0" r="2.3" fill="#d8e0e6"/></g><g><animateTransform attributeName="transform" type="translate" from="-40 192" to="848 192" dur="12s" begin="4s" repeatCount="indefinite"/><ellipse cx="0" cy="0" rx="15" ry="2.1" fill="#e8a23a" opacity="0.72"/><circle cx="15" cy="0" r="2.3" fill="#d8e0e6"/></g>
    </svg>