<svg xmlns="http://www.w3.org/2000/svg" width="848" height="320" viewBox="0 0 848 320" role="img"><rect width="848" height="320" fill="#0c1014"/>
    <rect x="8" y="8" width="832" height="304" fill="#141b21" stroke="#24303a"/><path d="M16 16 H34 M16 16 V34 M832 16 H814 M832 16 V34" stroke="#5ce1e6" fill="none" stroke-width="1.6"/>
    <text x="28" y="36" fill="#5ce1e6" font-size="11" letter-spacing="2.4" font-family="ui-monospace, Consolas, monospace">ORBITAL FIELD</text>
    <text x="220" y="36" fill="#8a97a3" font-size="11" letter-spacing="1.6" font-family="ui-monospace, Consolas, monospace">LAST 12 MONTHS</text>
    <circle cx="424" cy="178" r="16" fill="#5ce1e6" opacity="0.18"/>
    <circle cx="424" cy="178" r="4" fill="#5ce1e6" opacity="0.7"/>
    <g><animateTransform attributeName="transform" type="rotate" from="0 424 178" to="360 424 178" dur="90s" repeatCount="indefinite"/><ellipse cx="424" cy="178" rx="90" ry="48" fill="none" stroke="#24303a" stroke-width="1.1"/><circle cx="483.8" cy="142.1" r="5.5" fill="#e8a23a" opacity="0.9"/><circle cx="486.1" cy="143.3" r="5.5" fill="#e8a23a" opacity="0.9"/><circle cx="489.4" cy="145.0" r="5.5" fill="#e8a23a" opacity="0.9"/><circle cx="495.4" cy="148.8" r="5.5" fill="#e8a23a" opacity="0.9"/><circle cx="504.5" cy="156.5" r="5.5" fill="#e8a23a" opacity="0.9"/><circle cx="505.1" cy="157.2" r="5.5" fill="#e8a23a" opacity="0.9"/><circle cx="505.8" cy="158.0" r="5.5" fill="#e8a23a" opacity="0.9"/><circle cx="511.4" cy="166.5" r="5.5" fill="#e8a23a" opacity="0.9"/><circle cx="511.8" cy="167.3" r="5.5" fill="#e8a23a" opacity="0.9"/><circle cx="512.1" cy="168.2" r="5.5" fill="#e8a23a" opacity="0.9"/><circle cx="513.1" cy="171.4" r="5.5" fill="#e8a23a" opacity="0.9"/></g><g><animateTransform attributeName="transform" type="rotate" from="0 424 178" to="-360 424 178" dur="140s" repeatCount="indefinite"/><ellipse cx="424" cy="178" rx="180" ry="96" fill="none" stroke="#24303a" stroke-width="1.1"/><circle cx="262.4" cy="220.3" r="5.5" fill="#e8a23a" opacity="0.9"/><circle cx="261.1" cy="218.8" r="5.5" fill="#e8a23a" opacity="0.9"/><circle cx="250.4" cy="152.7" r="5.5" fill="#e8a23a" opacity="0.9"/><circle cx="253.1" cy="147.9" r="5.5" fill="#e8a23a" opacity="0.9"/><circle cx="254.0" cy="146.4" r="5.5" fill="#e8a23a" opacity="0.9"/><circle cx="255.1" cy="144.8" r="5.5" fill="#e8a23a" opacity="0.9"/><circle cx="266.7" cy="131.3" r="5.5" fill="#e8a23a" opacity="0.9"/><circle cx="288.0" cy="115.1" r="5.5" fill="#e8a23a" opacity="0.9"/><circle cx="508.1" cy="93.1" r="5.5" fill="#e8a23a" opacity="0.9"/><circle cx="550.5" cy="109.7" r="5.5" fill="#e8a23a" opacity="0.9"/><circle cx="556.9" cy="113.3" r="5.5" fill="#e8a23a" opacity="0.9"/><circle cx="559.0" cy="114.5" r="5.5" fill="#e8a23a" opacity="0.9"/><circle cx="561.0" cy="115.7" r="5.5" fill="#e8a23a" opacity="0.9"/><circle cx="564.9" cy="118.3" r="5.5" fill="#e8a23a" opacity="0.9"/><circle cx="570.5" cy="122.2" r="5.5" fill="#e8a23a" opacity="0.9"/><circle cx="572.3" cy="123.6" r="5.5" fill="#e8a23a" opacity="0.9"/><circle cx="580.5" cy="130.6" r="5.5" fill="#e8a23a" opacity="0.9"/><circle cx="583.5" cy="133.5" r="5.5" fill="#e8a23a" opacity="0.9"/><circle cx="588.9" cy="139.5" r="5.5" fill="#e8a23a" opacity="0.9"/><circle cx="590.1" cy="141.0" r="5.5" fill="#e8a23a" opacity="0.9"/><circle cx="592.4" cy="144.0" r="5.5" fill="#e8a23a" opacity="0.9"/><circle cx="593.4" cy="145.6" r="5.5" fill="#e8a23a" opacity="0.9"/><circle cx="595.4" cy="148.7" r="5.5" fill="#e8a23a" opacity="0.9"/><circle cx="596.3" cy="150.3" r="5.5" fill="#e8a23a" opacity="0.9"/><circle cx="597.2" cy="151.9" r="5.5" fill="#e8a23a" opacity="0.9"/><circle cx="598.0" cy="153.5" r="5.5" fill="#e8a23a" opacity="0.9"/><circle cx="602.7" cy="166.5" r="5.5" fill="#e8a23a" opacity="0.9"/></g><g><animateTransform attributeName="transform" type="rotate" from="0 424 178" to="360 424 178" dur="200s" repeatCount="indefinite"/><ellipse cx="424" cy="178" rx="270" ry="128" fill="none" stroke="#24303a" stroke-width="1.1"/><circle cx="566.3" cy="286.8" r="1.9" fill="#5ce1e6" opacity="0.9"/><circle cx="177.7" cy="230.4" r="2.5" fill="#5ce1e6" opacity="0.9"/><circle cx="175.8" cy="228.4" r="1.9" fill="#5ce1e6" opacity="0.9"/><circle cx="174.0" cy="226.3" r="3.2" fill="#5ce1e6" opacity="0.9"/><circle cx="163.6" cy="211.7" r="4.7" fill="#e8a23a" opacity="0.9"/><circle cx="164.8" cy="142.1" r="2.5" fill="#5ce1e6" opacity="0.9"/><circle cx="172.3" cy="131.7" r="2.9" fill="#5ce1e6" opacity="0.9"/><circle cx="175.8" cy="127.6" r="2.2" fill="#5ce1e6" opacity="0.9"/><circle cx="177.7" cy="125.6" r="2.5" fill="#5ce1e6" opacity="0.9"/><circle cx="179.6" cy="123.6" r="3.9" fill="#e8a23a" opacity="0.9"/><circle cx="185.8" cy="117.7" r="2.9" fill="#5ce1e6" opacity="0.9"/><circle cx="192.7" cy="111.9" r="1.9" fill="#5ce1e6" opacity="0.9"/><circle cx="197.7" cy="108.2" r="3.6" fill="#e8a23a" opacity="0.9"/><circle cx="232.7" cy="87.7" r="5.0" fill="#e8a23a" opacity="0.9"/><circle cx="246.2" cy="81.7" r="1.9" fill="#5ce1e6" opacity="0.9"/><circle cx="264.4" cy="74.8" r="2.9" fill="#5ce1e6" opacity="0.9"/><circle cx="287.7" cy="67.5" r="1.9" fill="#5ce1e6" opacity="0.9"/><circle cx="291.7" cy="66.4" r="3.2" fill="#5ce1e6" opacity="0.9"/><circle cx="295.8" cy="65.4" r="3.2" fill="#5ce1e6" opacity="0.9"/><circle cx="374.3" cy="52.2" r="2.2" fill="#5ce1e6" opacity="0.9"/><circle cx="388.1" cy="51.1" r="1.9" fill="#5ce1e6" opacity="0.9"/><circle cx="401.9" cy="50.4" r="1.9" fill="#5ce1e6" opacity="0.9"/><circle cx="425.2" cy="50.0" r="4.3" fill="#e8a23a" opacity="0.9"/><circle cx="503.0" cy="55.6" r="3.2" fill="#5ce1e6" opacity="0.9"/><circle cx="537.7" cy="61.9" r="3.2" fill="#5ce1e6" opacity="0.9"/><circle cx="562.3" cy="68.1" r="4.7" fill="#e8a23a" opacity="0.9"/><circle cx="566.3" cy="69.2" r="1.9" fill="#5ce1e6" opacity="0.9"/><circle cx="570.2" cy="70.4" r="2.2" fill="#5ce1e6" opacity="0.9"/><circle cx="574.1" cy="71.6" r="2.2" fill="#5ce1e6" opacity="0.9"/><circle cx="607.0" cy="83.9" r="3.9" fill="#e8a23a" opacity="0.9"/><circle cx="617.0" cy="88.5" r="3.9" fill="#e8a23a" opacity="0.9"/><circle cx="632.5" cy="96.7" r="4.7" fill="#e8a23a" opacity="0.9"/><circle cx="641.1" cy="101.9" r="4.7" fill="#e8a23a" opacity="0.9"/><circle cx="661.0" cy="116.7" r="4.3" fill="#e8a23a" opacity="0.9"/><circle cx="674.9" cy="130.7" r="5.0" fill="#e8a23a" opacity="0.9"/><circle cx="679.7" cy="136.9" r="4.7" fill="#e8a23a" opacity="0.9"/><circle cx="692.6" cy="164.8" r="3.6" fill="#e8a23a" opacity="0.9"/><circle cx="693.0" cy="167.0" r="2.9" fill="#5ce1e6" opacity="0.9"/><circle cx="693.4" cy="169.2" r="3.2" fill="#5ce1e6" opacity="0.9"/><circle cx="693.8" cy="173.6" r="2.2" fill="#5ce1e6" opacity="0.9"/><circle cx="694.0" cy="175.8" r="1.9" fill="#5ce1e6" opacity="0.9"/><circle cx="694.0" cy="178.0" r="1.5" fill="#8a97a3" opacity="0.35"/><circle cx="692.0" cy="193.4" r="1.5" fill="#8a97a3" opacity="0.35"/><circle cx="686.2" cy="208.6" r="1.5" fill="#8a97a3" opacity="0.35"/><circle cx="676.5" cy="223.3" r="1.5" fill="#8a97a3" opacity="0.35"/><circle cx="663.2" cy="237.3" r="1.5" fill="#8a97a3" opacity="0.35"/><circle cx="646.5" cy="250.5" r="1.5" fill="#8a97a3" opacity="0.35"/><circle cx="626.5" cy="262.7" r="1.5" fill="#8a97a3" opacity="0.35"/><circle cx="603.5" cy="273.6" r="1.5" fill="#8a97a3" opacity="0.35"/><circle cx="578.0" cy="283.1" r="1.5" fill="#8a97a3" opacity="0.35"/><circle cx="546.1" cy="292.2" r="1.5" fill="#8a97a3" opacity="0.35"/><circle cx="516.2" cy="298.3" r="1.5" fill="#8a97a3" opacity="0.35"/><circle cx="485.1" cy="302.7" r="1.5" fill="#8a97a3" opacity="0.35"/><circle cx="453.0" cy="305.3" r="1.5" fill="#8a97a3" opacity="0.35"/><circle cx="420.5" cy="306.0" r="1.5" fill="#8a97a3" opacity="0.35"/><circle cx="388.1" cy="304.9" r="1.5" fill="#8a97a3" opacity="0.35"/><circle cx="356.2" cy="301.9" r="1.5" fill="#8a97a3" opacity="0.35"/><circle cx="325.3" cy="297.1" r="1.5" fill="#8a97a3" opacity="0.35"/><circle cx="295.8" cy="290.6" r="1.5" fill="#8a97a3" opacity="0.35"/><circle cx="268.1" cy="282.5" r="1.5" fill="#8a97a3" opacity="0.35"/><circle cx="242.8" cy="272.9" r="1.5" fill="#8a97a3" opacity="0.35"/><circle cx="220.0" cy="261.9" r="1.5" fill="#8a97a3" opacity="0.35"/><circle cx="200.2" cy="249.6" r="1.5" fill="#8a97a3" opacity="0.35"/><circle cx="183.7" cy="236.4" r="1.5" fill="#8a97a3" opacity="0.35"/><circle cx="162.4" cy="209.6" r="1.5" fill="#8a97a3" opacity="0.35"/><circle cx="156.2" cy="194.5" r="1.5" fill="#8a97a3" opacity="0.35"/><circle cx="154.0" cy="179.1" r="1.5" fill="#8a97a3" opacity="0.35"/><circle cx="155.7" cy="163.7" r="1.5" fill="#8a97a3" opacity="0.35"/><circle cx="161.3" cy="148.5" r="1.5" fill="#8a97a3" opacity="0.35"/><circle cx="195.2" cy="110.1" r="1.5" fill="#8a97a3" opacity="0.35"/><circle cx="217.0" cy="95.8" r="1.5" fill="#8a97a3" opacity="0.35"/><circle cx="249.8" cy="80.2" r="1.5" fill="#8a97a3" opacity="0.35"/><circle cx="279.7" cy="69.8" r="1.5" fill="#8a97a3" opacity="0.35"/><circle cx="320.9" cy="59.7" r="1.5" fill="#8a97a3" opacity="0.35"/><circle cx="351.7" cy="54.7" r="1.5" fill="#8a97a3" opacity="0.35"/><circle cx="392.7" cy="50.9" r="1.5" fill="#8a97a3" opacity="0.35"/><circle cx="434.5" cy="50.1" r="1.5" fill="#8a97a3" opacity="0.35"/><circle cx="466.8" cy="51.6" r="1.5" fill="#8a97a3" opacity="0.35"/><circle cx="498.5" cy="55.0" r="1.5" fill="#8a97a3" opacity="0.35"/><circle cx="533.5" cy="61.0" r="1.5" fill="#8a97a3" opacity="0.35"/><circle cx="585.5" cy="75.4" r="1.5" fill="#8a97a3" opacity="0.35"/><g transform="translate(627.9 137.1)"><g><animateTransform attributeName="transform" type="rotate" from="0 0 0" to="-360 0 0" dur="200s" repeatCount="indefinite"/><text x="0" y="0" fill="#8a97a3" font-size="10" text-anchor="middle" font-family="ui-monospace, Consolas, monospace">PyFoldable</text></g></g><g transform="translate(600.6 241.3)"><g><animateTransform attributeName="transform" type="rotate" from="0 0 0" to="-360 0 0" dur="200s" repeatCount="indefinite"/><text x="0" y="0" fill="#8a97a3" font-size="10" text-anchor="middle" font-family="ui-monospace, Consolas, monospace">linkedin-agent-ski</text></g></g><g transform="translate(396.7 282.2)"><g><animateTransform attributeName="transform" type="rotate" from="0 0 0" to="-360 0 0" dur="200s" repeatCount="indefinite"/><text x="0" y="0" fill="#8a97a3" font-size="10" text-anchor="middle" font-family="ui-monospace, Consolas, monospace">geogebra</text></g></g><g transform="translate(220.1 218.9)"><g><animateTransform attributeName="transform" type="rotate" from="0 0 0" to="-360 0 0" dur="200s" repeatCount="indefinite"/><text x="0" y="0" fill="#8a97a3" font-size="10" text-anchor="middle" font-family="ui-monospace, Consolas, monospace">mav_active_3d_plan</text></g></g><g transform="translate(247.4 114.7)"><g><animateTransform attributeName="transform" type="rotate" from="0 0 0" to="-360 0 0" dur="200s" repeatCount="indefinite"/><text x="0" y="0" fill="#8a97a3" font-size="10" text-anchor="middle" font-family="ui-monospace, Consolas, monospace">open-code-review</text></g></g><g transform="translate(451.3 73.8)"><g><animateTransform attributeName="transform" type="rotate" from="0 0 0" to="-360 0 0" dur="200s" repeatCount="indefinite"/><text x="0" y="0" fill="#8a97a3" font-size="10" text-anchor="middle" font-family="ui-monospace, Consolas, monospace">yt-dlp</text></g></g></g>
    <g><animateTransform attributeName="transform" type="translate" from="-40 64" to="848 64" dur="8s" begin="0s" repeatCount="indefinite"/><ellipse cx="0" cy="0" rx="15" ry="2.1" fill="#e8a23a" opacity="0.72"/><circle cx="15" cy="0" r="2.3" fill="#d8e0e6"/></g><g><animateTransform attributeName="transform" type="translate" from="-40 96" to="848 96" dur="9s" begin="1s" repeatCount="indefinite"/><ellipse cx="0" cy="0" rx="15" ry="2.1" fill="#e8a23a" opacity="0.72"/><circle cx="15" cy="0" r="2.3" fill="#d8e0e6"/></g><g><animateTransform attributeName="transform" type="translate" from="-40 128" to="848 128" dur="10s" begin="2s" repeatCount="indefinite"/><ellipse cx="0" cy="0" rx="15" ry="2.1" fill="#e8a23a" opacity="0.72"/><circle cx="15" cy="0" r="2.3" fill="#d8e0e6"/></g><g><animateTransform attributeName="transform" type="translate" from="-40 160" to="848 160" dur="11s" begin="3s" repeatCount="indefinite"/><ellipse cx="0" cy="0" rx="15" ry="2.1" fill="#e8a23a" opacity="0.72"/><circle cx="15" cy="0" r="2.3" fill="#d8e0e6"/></g><g><animateTransform attributeName="transform" type="translate" from="-40 192" to="848 192" dur="12s" begin="4s" repeatCount="indefinite"/><ellipse cx="0" cy="0" rx="15" ry="2.1" fill="#e8a23a" opacity="0.72"/><circle cx="15" cy="0" r="2.3" fill="#d8e0e6"/></g>
    </svg>