<svg xmlns="http://www.w3.org/2000/svg" width="848" height="292" viewBox="0 0 848 292" role="img"><rect width="848" height="292" fill="#0c1014"/>
    <rect x="8" y="8" width="832" height="276" fill="#141b21" stroke="#24303a"/><path d="M16 16 H34 M16 16 V34 M832 16 H814 M832 16 V34" stroke="#5ce1e6" fill="none" stroke-width="1.6"/>
    <text x="28" y="36" fill="#5ce1e6" font-size="11" letter-spacing="2.4" font-family="ui-monospace, Consolas, monospace">LANGUAGE DISTRIBUTION</text>
    <text x="28" y="64" fill="#8a97a3" font-size="13" font-family="ui-monospace, Consolas, monospace">Jupyter</text><rect x="168" y="50" width="255" height="16" fill="#5ce1e6" opacity="0.88"/><text x="28" y="92" fill="#8a97a3" font-size="13" font-family="ui-monospace, Consolas, monospace">Python</text><rect x="168" y="78" width="142" height="16" fill="#5ce1e6" opacity="0.88"/><text x="28" y="120" fill="#8a97a3" font-size="13" font-family="ui-monospace, Consolas, monospace">TypeScript</text><rect x="168" y="106" width="108" height="16" fill="#5ce1e6" opacity="0.88"/><text x="28" y="148" fill="#8a97a3" font-size="13" font-family="ui-monospace, Consolas, monospace">JavaScript</text><rect x="168" y="134" width="45" height="16" fill="#5ce1e6" opacity="0.88"/><text x="28" y="176" fill="#8a97a3" font-size="13" font-family="ui-monospace, Consolas, monospace">CSS</text><rect x="168" y="162" width="31" height="16" fill="#5ce1e6" opacity="0.88"/><text x="28" y="204" fill="#8a97a3" font-size="13" font-family="ui-monospace, Consolas, monospace">PLpgSQL</text><rect x="168" y="190" width="17" height="16" fill="#5ce1e6" opacity="0.88"/><text x="28" y="232" fill="#8a97a3" font-size="13" font-family="ui-monospace, Consolas, monospace">HTML</text><rect x="168" y="218" width="17" height="16" fill="#5ce1e6" opacity="0.88"/><text x="28" y="260" fill="#8a97a3" font-size="13" font-family="ui-monospace, Consolas, monospace">Rust</text><rect x="168" y="246" width="17" height="16" fill="#5ce1e6" opacity="0.88"/>
    </svg>